<mxfile host="app.diagrams.net" agent="Mozilla/5.0 (Windows NT 10.0; Win64; x64; rv:141.0) Gecko/20100101 Firefox/141.0" version="28.0.7">
  <diagram name="PÃ¡gina-1" id="TMDoCD8hCcpHIJEySzZF">
    <mxGraphModel dx="872" dy="487" grid="1" gridSize="10" guides="1" tooltips="1" connect="1" arrows="1" fold="1" page="1" pageScale="1" pageWidth="827" pageHeight="1169" math="0" shadow="0">
      <root>
        <mxCell id="0" />
        <mxCell id="1" parent="0" />
        <mxCell id="UQOomTZAaCyZAPaUyG3R-51" style="edgeStyle=orthogonalEdgeStyle;rounded=0;orthogonalLoop=1;jettySize=auto;html=1;" edge="1" parent="1" source="UQOomTZAaCyZAPaUyG3R-37" target="UQOomTZAaCyZAPaUyG3R-49">
          <mxGeometry relative="1" as="geometry" />
        </mxCell>
        <mxCell id="UQOomTZAaCyZAPaUyG3R-37" value="Geneticist start the cloning process" style="html=1;dashed=0;whiteSpace=wrap;shape=mxgraph.dfd.start" vertex="1" parent="1">
          <mxGeometry x="349" y="60" width="130" height="40" as="geometry" />
        </mxCell>
        <mxCell id="UQOomTZAaCyZAPaUyG3R-41" style="edgeStyle=orthogonalEdgeStyle;rounded=0;orthogonalLoop=1;jettySize=auto;html=1;" edge="1" parent="1" source="UQOomTZAaCyZAPaUyG3R-38" target="UQOomTZAaCyZAPaUyG3R-40">
          <mxGeometry relative="1" as="geometry" />
        </mxCell>
        <mxCell id="UQOomTZAaCyZAPaUyG3R-38" value="Await (dino size * 5) seconds" style="html=1;dashed=0;whiteSpace=wrap;" vertex="1" parent="1">
          <mxGeometry x="364" y="325" width="100" height="50" as="geometry" />
        </mxCell>
        <mxCell id="UQOomTZAaCyZAPaUyG3R-44" style="edgeStyle=orthogonalEdgeStyle;rounded=0;orthogonalLoop=1;jettySize=auto;html=1;" edge="1" parent="1" source="UQOomTZAaCyZAPaUyG3R-40" target="UQOomTZAaCyZAPaUyG3R-47">
          <mxGeometry relative="1" as="geometry">
            <mxPoint x="414" y="565" as="targetPoint" />
          </mxGeometry>
        </mxCell>
        <mxCell id="UQOomTZAaCyZAPaUyG3R-40" value="Show Release button" style="html=1;dashed=0;whiteSpace=wrap;" vertex="1" parent="1">
          <mxGeometry x="364" y="435" width="100" height="50" as="geometry" />
        </mxCell>
        <mxCell id="UQOomTZAaCyZAPaUyG3R-46" style="edgeStyle=orthogonalEdgeStyle;rounded=0;orthogonalLoop=1;jettySize=auto;html=1;entryX=0.5;entryY=0.5;entryDx=0;entryDy=-15;entryPerimeter=0;" edge="1" parent="1" source="UQOomTZAaCyZAPaUyG3R-43">
          <mxGeometry relative="1" as="geometry">
            <mxPoint x="414" y="530" as="targetPoint" />
          </mxGeometry>
        </mxCell>
        <mxCell id="UQOomTZAaCyZAPaUyG3R-47" value="Add dinosaur to paddock list" style="html=1;dashed=0;whiteSpace=wrap;shape=mxgraph.dfd.start" vertex="1" parent="1">
          <mxGeometry x="361" y="545" width="106" height="40" as="geometry" />
        </mxCell>
        <mxCell id="UQOomTZAaCyZAPaUyG3R-52" style="edgeStyle=orthogonalEdgeStyle;rounded=0;orthogonalLoop=1;jettySize=auto;html=1;fillColor=#d5e8d4;strokeColor=#82b366;" edge="1" parent="1" source="UQOomTZAaCyZAPaUyG3R-49" target="UQOomTZAaCyZAPaUyG3R-38">
          <mxGeometry relative="1" as="geometry" />
        </mxCell>
        <mxCell id="UQOomTZAaCyZAPaUyG3R-56" value="Yes" style="edgeLabel;html=1;align=center;verticalAlign=middle;resizable=0;points=[];" vertex="1" connectable="0" parent="UQOomTZAaCyZAPaUyG3R-52">
          <mxGeometry x="-0.1074" y="3" relative="1" as="geometry">
            <mxPoint as="offset" />
          </mxGeometry>
        </mxCell>
        <mxCell id="UQOomTZAaCyZAPaUyG3R-54" style="edgeStyle=orthogonalEdgeStyle;rounded=0;orthogonalLoop=1;jettySize=auto;html=1;fillColor=#f8cecc;strokeColor=#b85450;" edge="1" parent="1" source="UQOomTZAaCyZAPaUyG3R-49" target="UQOomTZAaCyZAPaUyG3R-53">
          <mxGeometry relative="1" as="geometry" />
        </mxCell>
        <mxCell id="UQOomTZAaCyZAPaUyG3R-55" value="No" style="edgeLabel;html=1;align=center;verticalAlign=middle;resizable=0;points=[];" vertex="1" connectable="0" parent="UQOomTZAaCyZAPaUyG3R-54">
          <mxGeometry x="0.0465" y="-1" relative="1" as="geometry">
            <mxPoint as="offset" />
          </mxGeometry>
        </mxCell>
        <mxCell id="UQOomTZAaCyZAPaUyG3R-49" value="&lt;div&gt;The user is&amp;nbsp;&lt;/div&gt;&lt;div&gt;a geneticist?&lt;/div&gt;" style="shape=rhombus;html=1;dashed=0;whiteSpace=wrap;perimeter=rhombusPerimeter;" vertex="1" parent="1">
          <mxGeometry x="363" y="165" width="101" height="100" as="geometry" />
        </mxCell>
        <mxCell id="UQOomTZAaCyZAPaUyG3R-53" value="&lt;div&gt;Throw&amp;nbsp;&lt;/div&gt;&lt;div&gt;authentication error&lt;/div&gt;" style="html=1;dashed=0;whiteSpace=wrap;shape=mxgraph.dfd.start" vertex="1" parent="1">
          <mxGeometry x="550" y="192.5" width="120" height="45" as="geometry" />
        </mxCell>
      </root>
    </mxGraphModel>
  </diagram>
</mxfile>
